<svg width="24" height="24" viewBox="0 0 24 24" fill="none" xmlns="http://www.w3.org/2000/svg">
<path d="M2.3999 10.2C2.3999 9.88174 2.52633 9.57652 2.75137 9.35147C2.97642 9.12643 3.28164 9 3.5999 9H5.9999C6.31816 9 6.62339 9.12643 6.84843 9.35147C7.07347 9.57652 7.1999 9.88174 7.1999 10.2V19.2001C7.1999 19.5184 7.07347 19.8236 6.84843 20.0486C6.62339 20.2737 6.31816 20.4001 5.9999 20.4001H3.5999C3.28164 20.4001 2.97642 20.2737 2.75137 20.0486C2.52633 19.8236 2.3999 19.5184 2.3999 19.2001V10.2ZM9.5999 13.2C9.5999 12.8817 9.72633 12.5765 9.95137 12.3515C10.1764 12.1264 10.4816 12 10.7999 12H13.1999C13.5182 12 13.8234 12.1264 14.0484 12.3515C14.2735 12.5765 14.3999 12.8817 14.3999 13.2V19.2001C14.3999 19.5184 14.2735 19.8236 14.0484 20.0486C13.8234 20.2737 13.5182 20.4001 13.1999 20.4001H10.7999C10.4816 20.4001 10.1764 20.2737 9.95137 20.0486C9.72633 19.8236 9.5999 19.5184 9.5999 19.2001V13.2ZM16.7999 4.8001C16.7999 4.48184 16.9263 4.17661 17.1514 3.95157C17.3764 3.72653 17.6816 3.6001 17.9999 3.6001H20.3999C20.7182 3.6001 21.0234 3.72653 21.2484 3.95157C21.4735 4.17661 21.5999 4.48184 21.5999 4.8001V19.2001C21.5999 19.5184 21.4735 19.8236 21.2484 20.0486C21.0234 20.2737 20.7182 20.4001 20.3999 20.4001H17.9999C17.6816 20.4001 17.3764 20.2737 17.1514 20.0486C16.9263 19.8236 16.7999 19.5184 16.7999 19.2001V4.8001Z" fill="#232325"/>
</svg>
